# xmcd
#
# Track frame offsets:
#	182
#	10130
#	20805
#	32782
#	44505
#	61942
#	76855
#	90110
#	100197
#	117530
#	130157
#	142540
#	151357
#	164827
#	176822
#	188067
#	200540
#	214650
#	227102
#
# Disc length: 3220 seconds
#
# Revision: 2
# Processed by: cddbd v1.5.2PL0 Copyright (c) Steve Scherf et al.
# Submitted via: EZCDAudioConverter 6.0.5.1
#
DISCID=fb0c9213
DTITLE=Lynn Anderson - Legends (1994)
DYEAR=1994
DGENRE=Country
TTITLE0=What A Man My Man Is (1974)
TTITLE1=Silver Threads and Golden Needles (Cover Wanda Jackson 1956)
TTITLE2=How Can I Unlove You (1971)
TTITLE3=You´Re My Man (1971)
TTITLE4=Close To You
TTITLE5=We´Ve Only Just Begun
TTITLE6=Top Of The World (1973)
TTITLE7=Fool Me (1972)
TTITLE8=Midnight Train To Georgia (1982)
TTITLE9=It Must Be
TTITLE10=Listen To A Country Song (1972)
TTITLE11=Ride Ride Ride (1966)
TTITLE12=Keep Me In Mind (1973)
TTITLE13=You Don´T Have To Say You Love Me
TTITLE14=Even Cowgirls Get The Blues (1980)
TTITLE15=I Never Loved Anyone Before (1975)
TTITLE16=Where´S The Fire
TTITLE17=(I Never Promised You A) Rose Garden (1970)
TTITLE18=Cry (1972)
EXTD=
EXTT0=
EXTT1=
EXTT2=
EXTT3=
EXTT4=
EXTT5=
EXTT6=
EXTT7=
EXTT8=
EXTT9=
EXTT10=
EXTT11=
EXTT12=
EXTT13=
EXTT14=
EXTT15=
EXTT16=
EXTT17=
EXTT18=
PLAYORDER=
